<?xml version="1.0" encoding="UTF-8"?>
<svg xmlns="http://www.w3.org/2000/svg" version="1.1" viewBox="0 0 1440 320">
  <!-- Generator: Adobe Illustrator 30.2.1, SVG Export Plug-In . SVG Version: 2.1.1 Build 1)  -->
  <defs>
    <style>
      .st0 {
        fill: #f4f6f8;
      }
    </style>
  </defs>
  <g id="Layer_1">
    <path class="st0" d="M15.51,756.33l21.8-5.3c21.8-5.7,65.2-15.7,109.2-58.7,43.5-43,87-117,131-112,43.5,5,87,91,131,106.7,43.4,16.3,87-37.7,131-37.4,43.3-.3,87,53.7,131,48,43.2-5.3,87-69.3,130-106.6,44.1-37.7,88-47.7,131-21.4,44,26.7,88,90.7,131,106.7,43.9,16,88-16,131-37.3,43.8-21.7,87-31.7,131-26.7,43.7,5,87,27,109,37.3l22,10.7v-160H15.51v256Z"/>
  </g>
  <g id="Layer_2">
    <rect class="st0" y="64" width="65.45" height="64"/>
    <rect class="st0" y="0" width="65.45" height="64"/>
    <rect class="st0" y="128" width="65.45" height="64"/>
    <rect class="st0" y="192" width="65.45" height="64"/>
    <rect class="st0" x="65.45" y="64" width="65.45" height="64"/>
    <rect class="st0" x="65.45" y="0" width="65.45" height="64"/>
    <rect class="st0" x="65.45" y="128" width="65.45" height="64"/>
    <rect class="st0" x="130.91" y="64" width="65.45" height="64"/>
    <rect class="st0" x="130.91" y="0" width="65.45" height="64"/>
    <rect class="st0" x="196.36" y="0" width="65.45" height="64"/>
    <rect class="st0" x="261.82" y="64" width="65.45" height="64"/>
    <rect class="st0" x="261.82" y="0" width="65.45" height="64"/>
    <rect class="st0" x="327.27" y="64" width="65.45" height="64"/>
    <rect class="st0" x="327.27" y="0" width="65.45" height="64"/>
    <rect class="st0" x="327.27" y="128" width="65.45" height="64"/>
    <rect class="st0" x="392.73" y="64" width="65.45" height="64"/>
    <rect class="st0" x="392.73" y="0" width="65.45" height="64"/>
    <rect class="st0" x="392.73" y="128" width="65.45" height="64"/>
    <rect class="st0" x="392.73" y="192" width="65.45" height="64"/>
    <rect class="st0" x="458.18" y="64" width="65.45" height="64"/>
    <rect class="st0" x="458.18" y="0" width="65.45" height="64"/>
    <rect class="st0" x="458.18" y="128" width="65.45" height="64"/>
    <rect class="st0" x="523.64" y="64" width="65.45" height="64"/>
    <rect class="st0" x="523.64" y="0" width="65.45" height="64"/>
    <rect class="st0" x="589.09" y="64" width="65.45" height="64"/>
    <rect class="st0" x="589.09" y="0" width="65.45" height="64"/>
    <rect class="st0" x="589.09" y="128" width="65.45" height="64"/>
    <rect class="st0" x="654.55" y="64" width="65.45" height="64"/>
    <rect class="st0" x="654.55" y="0" width="65.45" height="64"/>
    <rect class="st0" x="654.55" y="128" width="65.45" height="64"/>
    <rect class="st0" x="654.55" y="192" width="65.45" height="64"/>
    <rect class="st0" x="720" y="64" width="65.45" height="64"/>
    <rect class="st0" x="720" y="0" width="65.45" height="64"/>
    <rect class="st0" x="720" y="128" width="65.45" height="64"/>
    <rect class="st0" x="785.45" y="64" width="65.45" height="64"/>
    <rect class="st0" x="785.45" y="0" width="65.45" height="64"/>
    <rect class="st0" x="785.45" y="192" width="65.45" height="64"/>
    <rect class="st0" x="850.91" y="0" width="65.45" height="64"/>
    <rect class="st0" x="850.91" y="128" width="65.45" height="64"/>
    <rect class="st0" x="916.36" y="64" width="65.45" height="64"/>
    <rect class="st0" x="916.36" y="0" width="65.45" height="64"/>
    <rect class="st0" x="916.36" y="192" width="65.45" height="64"/>
    <rect class="st0" x="981.82" y="64" width="65.45" height="64"/>
    <rect class="st0" x="981.82" y="0" width="65.45" height="64"/>
    <rect class="st0" x="981.82" y="128" width="65.45" height="64"/>
    <rect class="st0" x="1047.27" y="64" width="65.45" height="64"/>
    <rect class="st0" x="1047.27" y="0" width="65.45" height="64"/>
    <rect class="st0" x="1112.73" y="0" width="65.45" height="64"/>
    <rect class="st0" x="1178.18" y="64" width="65.45" height="64"/>
    <rect class="st0" x="1178.18" y="0" width="65.45" height="64"/>
    <rect class="st0" x="1243.64" y="0" width="65.45" height="64"/>
    <rect class="st0" x="1243.64" y="128" width="65.45" height="64"/>
    <rect class="st0" x="1309.09" y="64" width="65.45" height="64"/>
    <rect class="st0" x="1309.09" y="0" width="65.45" height="64"/>
    <rect class="st0" x="1309.09" y="192" width="65.45" height="64"/>
    <rect class="st0" x="1374.55" y="0" width="65.45" height="64"/>
    <rect class="st0" x="1374.55" y="128" width="65.45" height="64"/>
  </g>
</svg>